# xmcd CD database file
# Copyright (C) 1997 Ti Kan
#
# Track frame offsets:
#  150
#  13063
#  33605
#  50440
#  69050
#  81980
#  99015
#  114053
#  128023
#  144808
#  159075
#  178093
#  194605
#  216560
#  226123
#  253280
#  271050
#  290995
#  305088
#
# Disc length: 4327 seconds
#
# Revision: 1
# Processed by: cddbd v1.4b41PL1 Copyright (c) Steve Scherf et al.
# Submitted via: CDWizzard Release:4.22
#
DISCID=0810e513
DTITLE=K.D. Lang - Blue Sky Above Wide Plains
DYEAR=1900
DGENRE=
TTITLE0=Angel With a Lariat
TTITLE1=Johnny Get Angry
TTITLE2=Honky Talk All Night
TTITLE3=Lock, Stop and Teardrops
TTITLE4=Sugar Moon
TTITLE5=Broken Hearted
TTITLE6=Three Cigarettes in an Ashtray
TTITLE7=I'm Down to my Last Cigarette
TTITLE8=Tune Into my Wave
TTITLE9=Seven Lonely Days
TTITLE10=Crying
TTITLE11=Turn Me Around
TTITLE12=If You Need Me
TTITLE13=Hanky Panky
TTITLE14=Miss Chatalain
TTITLE15=Treail of Broken Heart
TTITLE16=Constant Craving
TTITLE17=Big, Big Love
TTITLE18=Crying
EXTD=
EXTT0=
EXTT1=
EXTT2=
EXTT3=
EXTT4=
EXTT5=
EXTT6=
EXTT7=
EXTT8=
EXTT9=
EXTT10=
EXTT11=
EXTT12=
EXTT13=
EXTT14=
EXTT15=
EXTT16=
EXTT17=
EXTT18=
PLAYORDER=
